<svg width="42" height="40" viewBox="0 0 42 40" fill="none" xmlns="http://www.w3.org/2000/svg">
<path d="M6.96093 30H34.8046C35.7617 30 36.5448 29.25 36.5448 28.3333C36.5448 27.4167 35.7617 26.6667 34.8046 26.6667H6.96093C6.00381 26.6667 5.2207 27.4167 5.2207 28.3333C5.2207 29.25 6.00381 30 6.96093 30ZM6.96093 21.6667H34.8046C35.7617 21.6667 36.5448 20.9167 36.5448 20C36.5448 19.0833 35.7617 18.3333 34.8046 18.3333H6.96093C6.00381 18.3333 5.2207 19.0833 5.2207 20C5.2207 20.9167 6.00381 21.6667 6.96093 21.6667ZM5.2207 11.6667C5.2207 12.5833 6.00381 13.3333 6.96093 13.3333H34.8046C35.7617 13.3333 36.5448 12.5833 36.5448 11.6667C36.5448 10.75 35.7617 10 34.8046 10H6.96093C6.00381 10 5.2207 10.75 5.2207 11.6667Z" fill="white"/>
</svg>
