<svg width="39" height="38" viewBox="0 0 39 38" fill="none" xmlns="http://www.w3.org/2000/svg">
<path d="M30.7402 6.89526H8.43627C7.16869 6.89526 5.95303 7.38173 5.05672 8.24764C4.1604 9.11355 3.65686 10.288 3.65686 11.5126V26.9035C3.65686 28.1281 4.1604 29.3025 5.05672 30.1684C5.95303 31.0344 7.16869 31.5208 8.43627 31.5208H30.7402C32.0078 31.5208 33.2234 31.0344 34.1197 30.1684C35.0161 29.3025 35.5196 28.1281 35.5196 26.9035V11.5126C35.5196 10.288 35.0161 9.11355 34.1197 8.24764C33.2234 7.38173 32.0078 6.89526 30.7402 6.89526ZM29.6728 9.97346L19.5882 17.2842L9.50367 9.97346H29.6728ZM30.7402 28.4426H8.43627C8.01375 28.4426 7.60853 28.2805 7.30975 27.9918C7.01098 27.7032 6.84313 27.3117 6.84313 26.9035V11.8973L18.6323 20.4393C18.9081 20.6391 19.2435 20.7471 19.5882 20.7471C19.9329 20.7471 20.2683 20.6391 20.5441 20.4393L32.3333 11.8973V26.9035C32.3333 27.3117 32.1655 27.7032 31.8667 27.9918C31.5679 28.2805 31.1627 28.4426 30.7402 28.4426Z" fill="white"/>
</svg>
