<svg width="43" height="19" viewBox="0 0 43 19" fill="none" xmlns="http://www.w3.org/2000/svg">
<path d="M6.056 15.696C7.912 15.696 8.84 14.904 8.84 13.32C8.84 12.648 8.488 12.08 7.784 11.616C7.272 11.264 6.568 10.888 5.672 10.488C4.792 10.072 4.128 9.744 3.68 9.504C3.248 9.264 2.744 8.928 2.168 8.496C1.064 7.648 0.512 6.592 0.512 5.328C0.512 4.064 1 3.016 1.976 2.184C2.968 1.336 4.304 0.912 5.984 0.912C7.664 0.912 9.456 1.448 11.36 2.52C11.36 3.672 11.24 4.92 11 6.264C10.488 6.424 9.728 6.504 8.72 6.504L8.024 3.648C7.432 3.472 6.784 3.384 6.08 3.384C5.376 3.384 4.832 3.536 4.448 3.84C4.064 4.144 3.872 4.6 3.872 5.208C3.872 5.8 4.168 6.336 4.76 6.816C5.368 7.28 6.096 7.712 6.944 8.112C7.792 8.496 8.376 8.768 8.696 8.928C9.016 9.088 9.424 9.328 9.92 9.648C10.416 9.968 10.792 10.272 11.048 10.56C11.704 11.328 12.032 12.184 12.032 13.128C12.032 14.792 11.48 16.072 10.376 16.968C9.272 17.864 7.832 18.312 6.056 18.312C5.112 18.312 4.072 18.152 2.936 17.832C1.816 17.496 0.864 17.072 0.08 16.56C0.112 15.584 0.24 14.264 0.464 12.6C1.104 12.472 1.872 12.408 2.768 12.408L3.272 15.288C4.152 15.56 5.08 15.696 6.056 15.696ZM22.5498 11.712L22.5258 15.696L24.1818 15.912C24.1818 16.568 23.9978 17.264 23.6298 18H17.7978L17.5818 16.68C18.6858 16.248 19.3578 16.016 19.5978 15.984C19.5978 15.04 19.5818 13.624 19.5498 11.736L15.0138 3.312L12.9018 2.664L13.0938 1.2H19.3338C19.6218 1.728 19.7658 2.36 19.7658 3.096C19.3978 3.16 18.9258 3.232 18.3498 3.312L20.9178 9.096H21.1338L23.8698 3.288C23.3258 3.176 22.6618 2.968 21.8778 2.664L22.0458 1.2H28.3098C28.5818 1.6 28.7258 2.232 28.7418 3.096C28.1178 3.224 27.4938 3.312 26.8698 3.36L22.5498 11.712ZM40.2314 13.632C40.6154 13.568 40.9034 13.536 41.0954 13.536C41.3034 13.536 41.7434 13.592 42.4154 13.704C42.4794 13.832 42.5674 14.24 42.6794 14.928C42.8074 15.616 42.8714 16.176 42.8714 16.608C42.8714 17.024 42.8234 17.488 42.7274 18H31.0874L30.8714 16.68C31.6554 16.36 32.3274 16.128 32.8874 15.984C32.8874 15.936 32.8154 11.704 32.6714 3.288L30.6794 2.664L30.8714 1.2H37.1114C37.0954 1.2 37.0954 1.216 37.1114 1.248C37.1434 1.28 37.1754 1.352 37.2074 1.464C37.2554 1.56 37.3034 1.68 37.3514 1.824C37.4474 2.08 37.5114 2.504 37.5434 3.096C36.7274 3.224 36.1914 3.304 35.9354 3.336C35.8714 8.856 35.8314 12.976 35.8154 15.696H39.7034L40.2314 13.632Z" fill="white"/>
</svg>
