<svg width="39" height="38" viewBox="0 0 39 38" fill="none" xmlns="http://www.w3.org/2000/svg">
<path d="M13.1078 31.2348C15.4636 31.312 17.8112 30.9256 20.0121 30.0983C22.2129 29.271 24.2222 28.0196 25.9213 26.4181C27.6203 24.8166 28.9747 22.8974 29.9042 20.7741C30.8338 18.6508 31.3197 16.3663 31.3333 14.0557C32.4129 12.7461 33.2146 11.2381 33.6912 9.6204C33.7267 9.49259 33.7239 9.35743 33.6829 9.23118C33.6419 9.10493 33.5646 8.99299 33.4602 8.90882C33.3558 8.82466 33.2289 8.77187 33.0946 8.75681C32.9603 8.74174 32.8245 8.76505 32.7034 8.82392C32.1386 9.09044 31.5027 9.17653 30.8854 9.07006C30.268 8.96359 29.7003 8.66994 29.2622 8.23046C28.703 7.6301 28.0265 7.14589 27.2728 6.80652C26.5191 6.46715 25.7036 6.27953 24.8747 6.25477C24.0457 6.23001 23.22 6.36862 22.4467 6.66239C21.6734 6.95615 20.968 7.39909 20.3725 7.96497C19.5571 8.73905 18.9599 9.70675 18.6389 10.774C18.3179 11.8413 18.2839 12.9718 18.5404 14.0557C13.2034 14.3681 9.53919 11.8849 6.60782 8.48034C6.51975 8.38258 6.40455 8.31207 6.27629 8.27742C6.14802 8.24278 6.01224 8.2455 5.88553 8.28525C5.75881 8.325 5.64665 8.40006 5.56273 8.50126C5.47881 8.60247 5.42677 8.72544 5.41296 8.85516C4.85452 11.8918 5.25736 15.0233 6.56738 17.829C7.8774 20.6347 10.0319 22.9802 12.7414 24.5505C10.9246 26.593 8.37334 27.8687 5.62007 28.1113C5.47257 28.1353 5.3364 28.2039 5.23063 28.3075C5.12486 28.4111 5.05478 28.5445 5.0302 28.6891C5.00562 28.8336 5.02777 28.9821 5.09354 29.1138C5.15932 29.2454 5.26543 29.3536 5.39703 29.4231C7.79235 30.5966 10.4301 31.2163 13.1078 31.2348Z" fill="white"/>
</svg>
